<?xml version="1.0" encoding="iso-8859-1"?>
<!-- Generator: Adobe Illustrator 19.0.0, SVG Export Plug-In . SVG Version: 6.00 Build 0)  -->
<svg version="1.1" id="Capa_1" xmlns="http://www.w3.org/2000/svg" xmlns:xlink="http://www.w3.org/1999/xlink" x="0px" y="0px"
	 viewBox="0 0 52 52" style="enable-background:new 0 0 52 52;" xml:space="preserve">
<g>
	<path id="aside-svg" d="M47.798,0.936C47.764,0.41,47.327,0,46.8,0H5.2C4.673,0,4.236,0.41,4.202,0.936l-3.2,50
		c-0.018,0.276,0.08,0.546,0.269,0.748S1.724,52,2,52h14c0.379,0,0.725-0.214,0.894-0.553L26,33.236l9.105,18.211
		C35.275,51.786,35.621,52,36,52h14c0.276,0,0.541-0.114,0.729-0.316s0.286-0.472,0.269-0.748L47.798,0.936z M45.862,2l0.32,5H5.818
		l0.32-5H45.862z M36.618,50l-9.724-19.447c-0.339-0.678-1.45-0.678-1.789,0L15.382,50H3.066l2.38-37.189C5.607,12.921,5.79,13,6,13
		c2.757,0,5,2.243,5,5s-2.243,5-5,5c-0.552,0-1,0.448-1,1s0.448,1,1,1c3.86,0,7-3.14,7-7s-3.14-7-7-7
		c-0.162,0-0.31,0.048-0.445,0.116L5.69,9H25v8.056c0,0.552,0.448,1,1,1s1-0.448,1-1V9h19.31l0.135,2.116
		C46.31,11.048,46.162,11,46,11c-3.86,0-7,3.14-7,7s3.14,7,7,7c0.552,0,1-0.448,1-1s-0.448-1-1-1c-2.757,0-5-2.243-5-5s2.243-5,5-5
		c0.209,0,0.393-0.079,0.554-0.189L48.934,50H36.618z"/>
</g>
<g>
</g>
<g>
</g>
<g>
</g>
<g>
</g>
<g>
</g>
<g>
</g>
<g>
</g>
<g>
</g>
<g>
</g>
<g>
</g>
<g>
</g>
<g>
</g>
<g>
</g>
<g>
</g>
<g>
</g>
</svg>
